<svg width="1219" height="235" viewBox="0 0 1219 235" fill="none" xmlns="http://www.w3.org/2000/svg">
<rect width="360" height="234" transform="translate(0.0716553 0.526489) rotate(-0.0186228)" fill="white"/>
<rect x="4.07166" y="0.525146" width="356" height="234" transform="rotate(-0.0186228 4.07166 0.525146)" fill="#F9EDFD"/>
<rect x="457.072" y="0.37793" width="356" height="234" transform="rotate(-0.0186228 457.072 0.37793)" fill="#F9EDFD"/>
<ellipse cx="71.5897" cy="56.0032" rx="49.5" ry="43.5" transform="rotate(-0.0186228 71.5897 56.0032)" fill="#106552"/>
<ellipse cx="267.59" cy="55.9396" rx="49.5" ry="43.5" transform="rotate(-0.0186228 267.59 55.9396)" fill="#3DAE90"/>
<ellipse cx="71.6239" cy="161.003" rx="49.5" ry="43.5" transform="rotate(-0.0186228 71.6239 161.003)" fill="#231F5A"/>
<ellipse cx="267.624" cy="160.939" rx="49.5" ry="43.5" transform="rotate(-0.0186228 267.624 160.939)" fill="#161398"/>
<ellipse cx="535.59" cy="55.8524" rx="49.5" ry="43.5" transform="rotate(-0.0186228 535.59 55.8524)" fill="#A30031"/>
<ellipse cx="535.628" cy="172.852" rx="49.5" ry="43.5" transform="rotate(-0.0186228 535.628 172.852)" fill="#DE0E3F"/>
<rect width="99" height="87" transform="translate(682.076 12.3048) rotate(-0.0186228)" fill="white"/>
<ellipse cx="731.59" cy="55.7887" rx="49.5" ry="43.5" transform="rotate(-0.0186228 731.59 55.7887)" fill="#E82D7C"/>
<ellipse cx="731.628" cy="172.789" rx="49.5" ry="43.5" transform="rotate(-0.0186228 731.628 172.789)" fill="#EE94CA"/>
<rect x="862.072" y="0.246338" width="356" height="234" transform="rotate(-0.0186228 862.072 0.246338)" fill="#F9EDFD"/>
<ellipse cx="937.59" cy="55.7218" rx="49.5" ry="43.5" transform="rotate(-0.0186228 937.59 55.7218)" fill="#FFCEF1"/>
<path d="M1187.09 55.6407C1187.1 79.6651 1164.94 99.1479 1137.6 99.1568C1110.27 99.1656 1088.1 79.6972 1088.09 55.6728C1088.08 31.6485 1110.24 12.1656 1137.58 12.1568C1164.91 12.1479 1187.08 31.6163 1187.09 55.6407Z" fill="#44297A"/>
<ellipse cx="937.628" cy="172.722" rx="49.5" ry="43.5" transform="rotate(-0.0186228 937.628 172.722)" fill="#095ED3"/>
<ellipse cx="1137.63" cy="172.657" rx="49.5" ry="43.5" transform="rotate(-0.0186228 1137.63 172.657)" fill="#22A2E3"/>
</svg>
